# Blender 3.6.0
# www.blender.org
mtllib crystals.mtl
o Crystal
v -0.168547 0.842843 -0.045596
v -0.103766 -0.034452 -0.017303
v 0.018841 0.860077 -0.105292
v 0.023512 -0.034452 -0.078605
v -0.081517 0.816211 0.173238
v -0.042464 -0.034452 0.109975
v 0.096744 0.856169 0.079178
v 0.045511 -0.045343 0.065867
v -0.131615 -0.034452 0.074512
v 0.159528 0.976731 -0.016372
v 0.112663 -0.034452 -0.043141
v -0.208587 0.912064 0.101384
v -0.204188 0.560606 -0.065971
v 0.187461 0.584373 0.120615
v 0.039788 0.620593 -0.159741
v -0.062446 0.600498 0.244621
v -0.242412 0.638103 0.132929
v 0.234167 0.650836 -0.077592
v 0.236490 0.468493 0.432728
v -0.034133 0.005231 0.016230
v 0.299521 0.549538 0.305124
v -0.009525 0.067388 -0.079587
v 0.418078 0.331183 0.406977
v 0.082695 -0.064619 0.000921
v 0.461761 0.444275 0.288448
v 0.094532 -0.026224 -0.070360
v 0.012971 -0.058263 0.052615
v 0.474560 0.579308 0.280481
v 0.060199 0.061032 -0.131281
v 0.339721 0.403737 0.517925
v 0.100561 0.327943 0.330108
v 0.436231 0.292807 0.119346
v 0.185706 0.463236 0.177052
v 0.396289 0.176846 0.315170
v 0.242535 0.234789 0.427900
v 0.352094 0.462062 0.078372
v -0.595058 0.537944 -0.003417
v -0.142034 -0.067943 0.003143
v -0.485716 0.629438 0.002602
v -0.057930 -0.010771 -0.006034
v -0.577523 0.515707 0.151847
v -0.133273 -0.065873 0.096336
v -0.477302 0.625592 0.135064
v -0.069546 -0.033837 0.088592
v -0.176309 -0.093185 0.053957
v -0.480621 0.750336 0.093426
v -0.014893 0.016541 0.036345
v -0.680687 0.548560 0.080999
v -0.475161 0.326857 -0.032519
v -0.303770 0.458783 0.173523
v -0.347624 0.475350 -0.033568
v -0.477405 0.357431 0.194282
v -0.574262 0.335613 0.084874
v -0.269323 0.555674 0.062727
v -0.253979 0.324960 0.427317
v -0.099849 -0.054511 0.189240
v -0.250236 0.385003 0.339721
v -0.105618 -0.019598 0.121934
v -0.128095 0.343608 0.436264
v -0.026897 -0.033558 0.193857
v -0.145982 0.410453 0.349984
v -0.030130 -0.014423 0.144219
v -0.060722 -0.060081 0.222484
v -0.198006 0.480758 0.331299
v -0.071793 0.006926 0.093307
v -0.200618 0.348814 0.495840
v -0.229208 0.185891 0.367206
v -0.069219 0.314028 0.254618
v -0.237577 0.280711 0.258693
v -0.058493 0.252903 0.391636
v -0.151643 0.215398 0.449293
v -0.165921 0.352416 0.204927
v 0.125576 0.270082 0.432719
v 0.081297 -0.069803 0.105683
v 0.028548 0.307587 0.411015
v 0.007818 -0.054293 0.093744
v 0.165050 0.334093 0.329670
v 0.100361 -0.023601 0.048375
v 0.060544 0.370300 0.329374
v 0.048627 -0.017809 0.036952
v 0.124602 -0.053831 0.082517
v 0.005401 0.411631 0.386378
v -0.016423 -0.024062 0.059602
v 0.195211 0.325346 0.418269
v 0.124255 0.139853 0.351442
v 0.029202 0.290083 0.199497
v -0.006469 0.200233 0.341360
v 0.175247 0.267191 0.227281
v 0.211435 0.211798 0.322307
v -0.056696 0.279833 0.275724
vn -0.6536 0.6997 0.2883
vn 0.0113 0.3997 0.9166
vn 0.5260 0.4321 0.7326
vn 0.5406 0.8290 -0.1430
vn 0.9193 0.0964 -0.3817
vn 0.7451 0.0074 0.6670
vn -0.0142 0.0307 0.9994
vn -0.9070 0.0299 0.4201
vn -0.7665 -0.0367 -0.6412
vn -0.6317 0.4288 -0.6457
vn -0.0788 0.4792 -0.8742
vn 0.0212 0.0410 -0.9989
vn 0.0069 -0.1293 -0.9916
vn 0.8950 -0.2090 -0.3940
vn -0.8896 -0.2039 0.4088
vn -0.7529 -0.1595 -0.6385
vn -0.0084 -0.1965 0.9805
vn 0.7234 -0.1980 0.6614
vn 0.1659 0.1167 0.9792
vn 0.8023 -0.3031 0.5143
vn 0.9988 0.0060 0.0479
vn 0.6091 0.7931 0.0035
vn 0.2996 0.5684 -0.7662
vn 0.8705 -0.2333 -0.4335
vn 0.6722 -0.6721 0.3105
vn -0.2081 -0.5073 0.8363
vn -0.8767 0.2000 0.4375
vn -0.5356 0.5766 0.6170
vn -0.3324 0.9361 0.1149
vn -0.6163 0.7372 -0.2769
vn -0.7123 0.5887 -0.3822
vn 0.1201 0.3545 -0.9273
vn -0.3243 -0.6579 0.6797
vn -0.9349 0.0907 0.3431
vn 0.5160 -0.8427 0.1537
vn 0.7239 -0.4017 -0.5609
vn -0.9835 0.1672 0.0686
vn -0.4114 0.0738 0.9085
vn 0.0166 0.3962 0.9180
vn -0.0089 0.9971 0.0750
vn 0.7739 0.6327 -0.0277
vn 0.3847 0.2241 0.8954
vn -0.2839 -0.2036 0.9370
vn -0.8424 -0.5339 0.0731
vn -0.3934 -0.2709 -0.8786
vn -0.5177 0.1235 -0.8466
vn -0.0610 0.4868 -0.8714
vn 0.2518 0.2480 -0.9355
vn 0.3149 0.1288 -0.9404
vn 0.9129 0.4050 -0.0512
vn -0.7165 -0.6946 0.0651
vn -0.3346 -0.3415 -0.8783
vn -0.1716 -0.3412 0.9242
vn 0.4626 0.0879 0.8822
vn -0.1589 0.2566 0.9534
vn 0.7177 0.3886 0.5779
vn 0.7229 0.6813 0.1152
vn -0.1655 0.9814 -0.0971
vn -0.0488 0.5529 -0.8318
vn 0.8557 0.4362 -0.2785
vn 0.8834 0.0674 0.4637
vn 0.0533 -0.4378 0.8975
vn -0.8321 -0.4711 0.2928
vn -0.9158 -0.0063 0.4017
vn -0.9420 0.3198 -0.1017
vn -0.9001 -0.0030 -0.4357
vn -0.8521 -0.1541 -0.5001
vn 0.0147 0.2814 -0.9595
vn 0.1127 -0.6265 0.7712
vn -0.7915 -0.5675 0.2269
vn 0.9302 -0.1224 0.3460
vn 0.8990 0.2509 -0.3590
vn 0.7248 0.3770 0.5767
vn 0.6061 0.7325 -0.3100
vn 0.0972 0.9032 -0.4181
vn -0.4557 0.8126 0.3632
vn -0.9409 0.3101 -0.1360
vn -0.1368 0.6451 -0.7517
vn 0.6575 0.4759 -0.5842
vn 0.9637 -0.1901 0.1873
vn 0.1681 -0.6653 0.7274
vn 0.0896 -0.2498 0.9641
vn -0.4760 -0.0686 0.8767
vn -0.6582 -0.4175 0.6265
vn -0.6526 -0.5512 0.5199
vn -0.9482 0.0592 -0.3120
vn 0.9295 -0.3670 0.0369
vn 0.1524 -0.7523 0.6410
vn 0.6275 0.2954 -0.7204
vn -0.1359 0.4752 -0.8693
vt 0.790875 0.901639
vt 0.668354 0.828792
vt 0.688538 0.667764
vt 0.790875 0.572752
vt 0.507196 0.501623
vt 0.471745 0.664453
vt 0.511039 0.846265
vt 0.573414 0.999874
vt 0.499181 0.144300
vt 0.683420 0.198349
vt 0.682114 0.334272
vt 0.508999 0.332731
vt 0.596367 0.000126
vt 0.795905 0.131980
vt 0.795905 0.443024
vt 0.519114 0.501371
vt 0.019914 0.213295
vt 0.000126 0.288522
vt 0.048908 0.021396
vt 0.043021 0.099380
vt 0.035237 0.875968
vt 0.037008 0.954120
vt 0.015812 0.798439
vt 0.000126 0.695330
s 1
usemtl Crystal
f 12/1/1 5/2/2 7/3/3 10/4/4
f 18/5/5 10/4/4 7/3/3 14/6/6
f 14/6/6 7/3/3 5/2/2 16/7/7
f 16/7/7 5/2/2 12/1/1 17/8/8
f 13/9/9 1/10/10 3/11/11 15/12/12
f 17/13/8 12/14/1 1/10/10 13/9/9
f 15/12/12 3/11/11 10/15/4 18/16/5
f 1/10/10 12/14/1 10/15/4 3/11/11
f 4/17/13 15/12/12 18/16/5 11/18/14
f 9/19/15 17/13/8 13/9/9 2/20/16
f 2/20/16 13/9/9 15/12/12 4/17/13
f 6/21/17 16/7/7 17/8/8 9/22/15
f 8/23/18 14/6/6 16/7/7 6/21/17
f 11/24/14 18/5/5 14/6/6 8/23/18
f 30/1/19 23/2/20 25/3/21 28/4/22
f 36/5/23 28/4/22 25/3/21 32/6/24
f 32/6/24 25/3/21 23/2/20 34/7/25
f 34/7/25 23/2/20 30/1/19 35/8/26
f 31/9/27 19/10/28 21/11/29 33/12/30
f 35/13/26 30/14/19 19/10/28 31/9/27
f 33/12/30 21/11/29 28/15/22 36/16/23
f 19/10/28 30/14/19 28/15/22 21/11/29
f 22/17/31 33/12/30 36/16/23 29/18/32
f 27/19/33 35/13/26 31/9/27 20/20/34
f 20/20/34 31/9/27 33/12/30 22/17/31
f 24/21/35 34/7/25 35/8/26 27/22/33
f 26/23/36 32/6/24 34/7/25 24/21/35
f 29/24/32 36/5/23 32/6/24 26/23/36
f 48/1/37 41/2/38 43/3/39 46/4/40
f 54/5/41 46/4/40 43/3/39 50/6/42
f 50/6/42 43/3/39 41/2/38 52/7/43
f 52/7/43 41/2/38 48/1/37 53/8/44
f 49/9/45 37/10/46 39/11/47 51/12/48
f 53/13/44 48/14/37 37/10/46 49/9/45
f 51/12/48 39/11/47 46/15/40 54/16/41
f 37/10/46 48/14/37 46/15/40 39/11/47
f 40/17/49 51/12/48 54/16/41 47/18/50
f 45/19/51 53/13/44 49/9/45 38/20/52
f 38/20/52 49/9/45 51/12/48 40/17/49
f 42/21/53 52/7/43 53/8/44 45/22/51
f 44/23/54 50/6/42 52/7/43 42/21/53
f 47/24/50 54/5/41 50/6/42 44/23/54
f 66/1/55 59/2/56 61/3/57 64/4/58
f 72/5/59 64/4/58 61/3/57 68/6/60
f 68/6/60 61/3/57 59/2/56 70/7/61
f 70/7/61 59/2/56 66/1/55 71/8/62
f 67/9/63 55/10/64 57/11/65 69/12/66
f 71/13/62 66/14/55 55/10/64 67/9/63
f 69/12/66 57/11/65 64/15/58 72/16/59
f 55/10/64 66/14/55 64/15/58 57/11/65
f 58/17/67 69/12/66 72/16/59 65/18/68
f 63/19/69 71/13/62 67/9/63 56/20/70
f 56/20/70 67/9/63 69/12/66 58/17/67
f 60/21/71 70/7/61 71/8/62 63/22/69
f 62/23/72 68/6/60 70/7/61 60/21/71
f 65/24/68 72/5/59 68/6/60 62/23/72
f 84/1/73 77/2/74 79/3/75 82/4/76
f 90/5/77 82/4/76 79/3/75 86/6/78
f 86/6/78 79/3/75 77/2/74 88/7/79
f 88/7/79 77/2/74 84/1/73 89/8/80
f 85/9/81 73/10/82 75/11/83 87/12/84
f 89/13/80 84/14/73 73/10/82 85/9/81
f 87/12/84 75/11/83 82/15/76 90/16/77
f 73/10/82 84/14/73 82/15/76 75/11/83
f 76/17/85 87/12/84 90/16/77 83/18/86
f 81/19/87 89/13/80 85/9/81 74/20/88
f 74/20/88 85/9/81 87/12/84 76/17/85
f 78/21/89 88/7/79 89/8/80 81/22/87
f 80/23/90 86/6/78 88/7/79 78/21/89
f 83/24/86 90/5/77 86/6/78 80/23/90
